<svg viewBox="0 0 24 24" xmlns="http://www.w3.org/2000/svg" xmlns:xlink="http://www.w3.org/1999/xlink" width="24" height="24" fill="none" customFrame="#000000">
	<g id="组合 6423">
		<rect id="矩形 16" width="24" height="24" x="0" y="0" fill="rgb(196,196,196)" fill-opacity="0" />
		<g id="01_Common_Btn/1_Common/common_close_sm">
			<path id="Color" d="M12.1094 11.7331L16.2689 7.58663C16.4647 7.39137 16.7823 7.39137 16.9782 7.58663C17.1741 7.78189 17.1741 8.09848 16.9782 8.29374L12.8187 12.4402L16.9782 16.5866C17.1741 16.7819 17.1741 17.0985 16.9782 17.2937C16.7823 17.489 16.4647 17.489 16.2689 17.2937L12.1094 13.1473L7.94998 17.2937C7.7541 17.489 7.43653 17.489 7.24066 17.2937C7.04478 17.0985 7.04478 16.7819 7.24066 16.5866L11.4001 12.4402L7.24066 8.29374C7.04478 8.09848 7.04478 7.78189 7.24066 7.58663C7.43653 7.39137 7.7541 7.39137 7.94998 7.58663L12.1094 11.7331Z" fill="rgb(0,0,0)" fill-opacity="0.600000024" fill-rule="evenodd" />
		</g>
	</g>
</svg>
