<svg viewBox="0 0 24 24" xmlns="http://www.w3.org/2000/svg" xmlns:xlink="http://www.w3.org/1999/xlink" width="24" height="24" fill="none" customFrame="#000000">
	<g id="geographic-info">
		<rect id="background" width="24" height="24" x="0" y="0" fill="rgb(196,196,196)" fill-opacity="0" />
		<g id="location-pin">
			<!-- Location pin shape -->
			<path id="pin-outline" d="M12 2C8.13 2 5 5.13 5 9c0 5.25 7 13 7 13s7-7.75 7-13c0-3.87-3.13-7-7-7z" stroke="rgb(0,0,0)" stroke-opacity="0.899999976" stroke-width="1.20000005" fill="rgb(196,196,196)" fill-opacity="0"/>
			<!-- Location pin center dot -->
			<circle id="pin-center" cx="12" cy="9" r="2.5" stroke="rgb(0,0,0)" stroke-opacity="0.899999976" stroke-width="1.20000005" fill="rgb(196,196,196)" fill-opacity="0"/>
		</g>
		<!-- Compass lines -->
		<g id="compass-lines">
			<path id="north-line" d="M0 0L1.5 0" stroke="rgb(0,0,0)" stroke-linecap="round" stroke-width="1.20000005" transform="matrix(0,1,-1,0,4,3)" />
			<path id="east-line" d="M0 0L1.5 0" stroke="rgb(0,0,0)" stroke-linecap="round" stroke-width="1.20000005" transform="matrix(1,0,0,1,3,3.5)" />
			<path id="south-line" d="M0 0L1.5 0" stroke="rgb(0,0,0)" stroke-linecap="round" stroke-width="1.20000005" transform="matrix(0,1,-1,0,4,5)" />
			<path id="west-line" d="M0 0L1.5 0" stroke="rgb(0,0,0)" stroke-linecap="round" stroke-width="1.20000005" transform="matrix(1,0,0,1,1.5,3.5)" />
		</g>
	</g>
</svg>