<svg viewBox="0 0 16 16" xmlns="http://www.w3.org/2000/svg" xmlns:xlink="http://www.w3.org/1999/xlink" width="16" height="16" fill="none">
	<rect id="提示 13" width="16" height="16" x="0" y="0" />
	<path id="矢量 1" d="M14.413 5.29092C14.0624 4.46212 13.5607 3.71788 12.9214 3.07868C12.2824 2.43964 11.538 1.93764 10.7092 1.58708C9.85116 1.22412 8.93956 1.04004 8.00004 1.04004C7.06068 1.04004 6.14924 1.22412 5.291 1.58708C4.46236 1.93764 3.71788 2.43956 3.07876 3.0786C2.43956 3.7178 1.93772 4.46212 1.58716 5.29084C1.22428 6.149 1.04004 7.0606 1.04004 8.00004C1.04004 8.93948 1.22428 9.851 1.58716 10.7091C1.93772 11.5379 2.43956 12.2822 3.07884 12.9213C3.71788 13.5604 4.4622 14.0624 5.291 14.4129C6.14908 14.7759 7.0606 14.96 8.00004 14.96C8.93964 14.96 9.851 14.7759 10.7093 14.4129C11.538 14.0624 12.2824 13.5605 12.9215 12.9213C13.5607 12.2822 14.0624 11.5379 14.4131 10.7091C14.776 9.851 14.96 8.93948 14.96 8.00004C14.96 7.0606 14.776 6.149 14.413 5.29092ZM13.5207 10.332C13.219 11.0454 12.7868 11.6862 12.2366 12.2365C11.9637 12.5101 11.6671 12.7549 11.3467 12.9709C11.0263 13.1869 10.6881 13.3702 10.3322 13.5206C9.59364 13.8329 8.80892 13.9913 7.99996 13.9913C7.19108 13.9913 6.40652 13.833 5.66796 13.5206C4.95452 13.2188 4.31388 12.7868 3.76364 12.2365C3.49004 11.9636 3.24523 11.667 3.0292 11.3466C2.81317 11.0262 2.62996 10.688 2.47956 10.332C2.16716 9.59348 2.00876 8.80892 2.00876 8.00004C2.00876 7.19116 2.16708 6.40652 2.47956 5.66804C2.62993 5.31207 2.81314 4.97388 3.02917 4.65348C3.2452 4.33307 3.49002 4.03643 3.76364 3.76356C4.0365 3.48996 4.33312 3.24515 4.6535 3.02912C4.97387 2.8131 5.31203 2.62988 5.66796 2.47948C6.40652 2.16716 7.19108 2.00868 7.99996 2.00868C8.80892 2.00868 9.5934 2.16708 10.332 2.47948C11.0455 2.78124 11.6861 3.21324 12.2364 3.76356C12.5101 4.03644 12.7549 4.33307 12.9709 4.65348C13.1869 4.97388 13.3701 5.31207 13.5205 5.66804C13.833 6.40652 13.9913 7.19116 13.9913 8.00004C13.9913 8.80892 13.833 9.59348 13.5207 10.332L13.5207 10.332Z" fill="rgb(51,111,255)" fill-rule="nonzero" />
	<path id="矢量 2" d="M8.59007 9.06983C8.55007 9.50655 8.27239 9.71063 7.99831 9.71063C7.73799 9.66159 7.53583 9.55055 7.44703 9.10887L7.08887 4.97983C7.08887 4.56479 7.59343 4.19751 8.02151 4.19751C8.44967 4.19751 8.91079 4.58159 8.91079 4.99591L8.59007 9.06983L8.59007 9.06983ZM7.99991 10.2508C7.57175 10.2508 7.22431 10.5978 7.22431 11.0264C7.22431 11.455 7.57135 11.8025 7.99991 11.8025C8.42839 11.8025 8.77559 11.455 8.77559 11.0264C8.77551 10.5984 8.42831 10.2508 7.99991 10.2508L7.99991 10.2508Z" fill="rgb(51,111,255)" fill-rule="nonzero" />
</svg>
