<svg viewBox="0 0 24 24" xmlns="http://www.w3.org/2000/svg" xmlns:xlink="http://www.w3.org/1999/xlink" width="24" height="24" fill="none" customFrame="#000000">
	<g id="组合 227">
		<g id="组合 226">
			<path id="合并" d="M19 5.77778C19 4.24366 17.7563 3 16.2222 3L7.77778 3C6.24366 3 5 4.24366 5 5.77778L5 11.3467C5 11.7415 5.08238 12.1172 5.23089 12.4573C5.24651 12.7099 5.39887 13.1 5.9903 13.5982C7.08047 14.5165 9.89193 14.9625 9.89194 15.8021C9.89194 16.3238 9.89194 18.5907 9.89194 20.2321C9.89194 21.2084 10.6834 21.9998 11.6596 21.9998L12.5997 21.9998C13.5759 21.9998 14.3673 21.2084 14.3673 20.2321C14.3673 18.5907 14.3674 16.3238 14.3673 15.8021C14.3673 15.3124 15.2014 14.9566 16.1244 14.563C16.784 14.2816 17.4889 13.9809 17.9672 13.5982C18.7002 13.0116 18.8245 12.5749 18.8187 12.3359C18.9358 12.0286 19 11.6952 19 11.3467L19 5.77778Z" fill="rgb(196,196,196)" fill-opacity="0" fill-rule="evenodd" />
			<path id="合并" d="M19 5.77778C19 4.24366 17.7563 3 16.2222 3L7.77778 3C6.24366 3 5 4.24366 5 5.77778L5 11.3467C5 11.7415 5.08238 12.1172 5.23089 12.4573C5.24651 12.7099 5.39887 13.1 5.9903 13.5982C7.08047 14.5165 9.89193 14.9625 9.89194 15.8021C9.89194 16.3238 9.89194 18.5907 9.89194 20.2321C9.89194 21.2084 10.6834 21.9998 11.6596 21.9998L12.5997 21.9998C13.5759 21.9998 14.3673 21.2084 14.3673 20.2321C14.3673 18.5907 14.3674 16.3238 14.3673 15.8021C14.3673 15.3124 15.2014 14.9566 16.1244 14.563C16.784 14.2816 17.4889 13.9809 17.9672 13.5982C18.7002 13.0116 18.8245 12.5749 18.8187 12.3359C18.9358 12.0286 19 11.6952 19 11.3467L19 5.77778Z" fill-rule="evenodd" stroke="rgb(0,0,0)" stroke-opacity="0.899999976" stroke-width="1.20000005" />
			<rect id="矩形 561" width="6" height="4" x="9" y="7" rx="0.5" fill="rgb(51,51,51)" fill-opacity="0" />
			<path id="矩形 562" d="M8.01515 5L15.9848 5C16.8216 5 17.5 5.67836 17.5 6.51515L17.5 11.6977C17.5 12.3384 17.0966 12.9094 16.482 13.0899C15.3191 13.4314 13.3597 13.9206 11.6769 13.9206C10.0403 13.9206 8.40097 13.4578 7.41834 13.1183C6.85283 12.9229 6.5 12.3807 6.5 11.7823L6.5 6.51515C6.5 5.67836 7.17836 5 8.01515 5Z" fill="rgb(196,196,196)" fill-opacity="0" fill-rule="evenodd" />
			<path id="矩形 562" d="M15.9848 5L8.01515 5C7.17836 5 6.5 5.67836 6.5 6.51515L6.5 11.7823C6.5 12.3807 6.85283 12.9229 7.41834 13.1183C8.40097 13.4578 10.0403 13.9206 11.6769 13.9206C13.3597 13.9206 15.3191 13.4314 16.482 13.0899C17.0966 12.9094 17.5 12.3384 17.5 11.6977L17.5 6.51515C17.5 5.67836 16.8216 5 15.9848 5ZM8.01515 6L15.9848 6C16.056 6 16.1219 6.01257 16.1826 6.03772C16.2433 6.06287 16.2988 6.10059 16.3491 6.15089C16.3994 6.20118 16.4371 6.25669 16.4623 6.3174C16.4874 6.37811 16.5 6.44403 16.5 6.51515L16.5 11.6977C16.5 11.7672 16.4875 11.8314 16.4624 11.8902C16.449 11.9216 16.432 11.9515 16.4115 11.9799C16.3814 12.0215 16.3462 12.0555 16.306 12.0819C16.2739 12.1029 16.2387 12.1191 16.2002 12.1304C15.4678 12.3455 14.762 12.5193 14.0829 12.6518C13.1646 12.831 12.3626 12.9206 11.6769 12.9206C11.0156 12.9206 10.294 12.8367 9.5121 12.669C8.92831 12.5438 8.33926 12.3785 7.74495 12.1731C7.71809 12.1639 7.6932 12.1516 7.67026 12.1364C7.63359 12.1121 7.60192 12.0803 7.57526 12.0409C7.56346 12.0235 7.55304 12.0054 7.54402 11.9866C7.51467 11.9256 7.5 11.8575 7.5 11.7823L7.5 6.51515C7.5 6.44403 7.51257 6.37811 7.53772 6.3174C7.56287 6.25668 7.60059 6.20118 7.65089 6.15089C7.70118 6.10059 7.75668 6.06287 7.8174 6.03772C7.87811 6.01257 7.94403 6 8.01515 6Z" fill="rgb(0,0,0)" fill-opacity="0.899999976" fill-rule="evenodd" />
			<rect id="矩形 563" width="2" height="1" x="11" y="16" fill="rgb(0,0,0)" fill-opacity="0.899999976" />
			<rect id="矩形 564" width="2" height="1" x="11" y="18" fill="rgb(0,0,0)" fill-opacity="0.899999976" />
			<rect id="矩形 565" width="2" height="1" x="11" y="19" fill="rgb(0,0,0)" fill-opacity="0.899999976" />
		</g>
		<rect id="矩形 566" width="24" height="24" x="0" y="0" fill="rgb(196,196,196)" fill-opacity="0" />
	</g>
</svg>
