<svg viewBox="0 0 14 14" xmlns="http://www.w3.org/2000/svg" xmlns:xlink="http://www.w3.org/1999/xlink" width="14" height="14" fill="none">
	<rect id="更多 6" width="14" height="14" x="0" y="0" />
	<path id="矢量 507" d="M10.2083 7.00012C10.2083 7.70881 10.7831 8.28344 11.4916 8.28344C12.2005 8.28344 12.7749 7.70882 12.7749 7.00012C12.7749 6.29142 12.2005 5.7168 11.4916 5.7168C10.7831 5.71681 10.2083 6.29142 10.2083 7.00012Z" fill="rgb(0,0,0)" fill-opacity="0.600000024" fill-rule="nonzero" />
	<path id="矢量 508" d="M1.2251 7.00012C1.2251 7.70881 1.79991 8.28344 2.50841 8.28344C3.21691 8.28344 3.79173 7.70882 3.79173 7.00012C3.79173 6.29142 3.21691 5.7168 2.50841 5.7168C1.79993 5.71681 1.2251 6.29142 1.2251 7.00012Z" fill="rgb(0,0,0)" fill-opacity="0.600000024" fill-rule="nonzero" />
	<path id="矢量 509" d="M5.7168 7.00012C5.7168 7.70881 6.29121 8.28344 7.00013 8.28344C7.70863 8.28344 8.28344 7.70882 8.28344 7.00012C8.28344 6.29142 7.70863 5.7168 7.00013 5.7168C6.29121 5.71681 5.7168 6.29142 5.7168 7.00012Z" fill="rgb(0,0,0)" fill-opacity="0.600000024" fill-rule="nonzero" />
</svg>
