<svg viewBox="0 0 24 24" xmlns="http://www.w3.org/2000/svg" xmlns:xlink="http://www.w3.org/1999/xlink" width="24" height="24" fill="none" customFrame="#000000">
	<g id="组合 6416">
		<rect id="矩形 1226" width="24" height="24" x="0" y="0" fill="rgb(196,196,196)" fill-opacity="0" />
		<g id="组合 5869">
			<path id="矩形 1225" d="M12.4434 6.2L20 6.2C20.2438 6.2 20.4774 6.24726 20.7009 6.34178C20.9163 6.43291 21.107 6.56138 21.2728 6.72721C21.4386 6.89303 21.5671 7.08367 21.6582 7.29911C21.7527 7.52258 21.8 7.75621 21.8 8L21.8 19C21.8 19.2438 21.7527 19.4774 21.6582 19.7009C21.5671 19.9163 21.4386 20.107 21.2728 20.2728C21.107 20.4386 20.9163 20.5671 20.7009 20.6582C20.4774 20.7527 20.2438 20.8 20 20.8L5 20.8C4.75622 20.8 4.52259 20.7527 4.29911 20.6582C4.08367 20.5671 3.89303 20.4386 3.72721 20.2728C3.56138 20.107 3.43291 19.9163 3.34178 19.7009C3.24726 19.4774 3.2 19.2438 3.2 19L3.2 8C3.2 7.75621 3.24726 7.52259 3.34178 7.29911C3.43291 7.08367 3.56138 6.89303 3.72721 6.72721C3.89303 6.56138 4.08367 6.43291 4.29911 6.34178C4.52259 6.24726 4.75621 6.2 5 6.2L7.11334 6.2L7.11334 7.8L5 7.8C4.94477 7.8 4.89763 7.81953 4.85858 7.85858C4.81953 7.89763 4.8 7.94477 4.8 8L4.8 19C4.8 19.0552 4.81953 19.1024 4.85858 19.1414C4.89763 19.1805 4.94477 19.2 5 19.2L20 19.2C20.0552 19.2 20.1024 19.1805 20.1414 19.1414C20.1805 19.1024 20.2 19.0552 20.2 19L20.2 8C20.2 7.94477 20.1805 7.89763 20.1414 7.85858C20.1024 7.81953 20.0552 7.8 20 7.8L12.4434 7.8L12.4434 6.2ZM7.09334 6.22L7.11334 6.2C7.56134 6.2 7.91334 6.552 7.91334 7C7.91334 7.448 7.56134 7.8 7.11334 7.8L7.09334 7.78L7.09334 6.22ZM12.4634 7.78L12.4434 7.8C11.9954 7.8 11.6434 7.448 11.6434 7C11.6434 6.552 11.9954 6.2 12.4434 6.2L12.4634 6.22L12.4634 7.78Z" fill="rgb(0,0,0)" fill-rule="nonzero" />
			<circle id="椭圆 13" cx="11" cy="14" r="4" fill="rgb(196,196,196)" fill-opacity="0" />
			<circle id="椭圆 13" cx="11" cy="14" r="3.20000005" stroke="rgb(0,0,0)" stroke-width="1.60000002" />
			<circle id="椭圆 14" cx="18" cy="10" r="1" fill="rgb(0,0,0)" />
			<path id="直线 40" d="M8 5L11 5" stroke="rgb(0,0,0)" stroke-linecap="round" stroke-width="1.60000002" />
		</g>
	</g>
</svg>
