<svg viewBox="0 0 24 24" xmlns="http://www.w3.org/2000/svg" xmlns:xlink="http://www.w3.org/1999/xlink" width="24" height="24" fill="none">
	<rect id="固定-02 (1) 19" width="24" height="24" x="0" y="0" />
	<path id="矢量 6" d="M13.8846 4.18374L9.81676 0.115952C9.78781 0.0866447 9.75504 0.0625288 9.71845 0.0436036C9.68185 0.0246785 9.64323 0.0118706 9.60259 0.00517981C9.56194 -0.00151093 9.52125 -0.00175699 9.48052 0.00444165C9.43979 0.0106403 9.40102 0.0229802 9.3642 0.0414614C9.32738 0.0599426 9.29432 0.0836604 9.26502 0.112615C9.23571 0.141569 9.2116 0.174343 9.19268 0.210937C9.17376 0.24753 9.16095 0.286151 9.15426 0.326801C9.14758 0.367451 9.14733 0.408139 9.15353 0.448865L9.37461 1.96518L5.21319 4.27217C3.81911 3.57514 2.6123 3.71298 1.63956 4.68832C1.62159 4.70662 1.60554 4.72649 1.59144 4.74792C1.57733 4.76935 1.56542 4.79194 1.55571 4.81568C1.546 4.83943 1.53867 4.86389 1.53372 4.88907C1.52877 4.91424 1.5263 4.93966 1.5263 4.96531C1.5263 4.99097 1.52877 5.01638 1.53372 5.04156C1.53867 5.06673 1.546 5.09119 1.55571 5.11494C1.56542 5.13869 1.57733 5.16128 1.59144 5.1827C1.60554 5.20413 1.62159 5.224 1.63956 5.24231L4.18844 7.78338L0.0738269 13.3831C0.0466504 13.4207 0.0268245 13.4619 0.0143491 13.5066C0.00187379 13.5513 -0.00248052 13.5968 0.00128622 13.6431C0.00505295 13.6894 0.0167081 13.7336 0.0362517 13.7757C0.0557952 13.8178 0.0820202 13.8552 0.114927 13.888C0.147833 13.9207 0.185389 13.9468 0.227594 13.9661C0.269799 13.9855 0.314047 13.9969 0.360337 14.0005C0.406628 14.004 0.452102 13.9994 0.49676 13.9867C0.541419 13.9741 0.582503 13.954 0.620014 13.9267L6.20152 9.80167L8.7582 12.3609C8.77651 12.3789 8.79637 12.395 8.8178 12.4091C8.83923 12.4232 8.86182 12.4351 8.88557 12.4448C8.90931 12.4545 8.93377 12.4618 8.95895 12.4668C8.98412 12.4717 9.00954 12.4742 9.03519 12.4742C9.06085 12.4742 9.08627 12.4717 9.11144 12.4668C9.13661 12.4618 9.16108 12.4545 9.18482 12.4448C9.20857 12.4351 9.23116 12.4232 9.25259 12.4091C9.27402 12.395 9.29388 12.3789 9.31219 12.3609C10.5242 11.1463 10.2043 9.83808 9.72313 8.79772L12.0405 4.6363L13.5516 4.85217C13.5922 4.85819 13.6328 4.85781 13.6733 4.85103C13.7137 4.84425 13.7522 4.83141 13.7886 4.81249C13.825 4.79358 13.8577 4.76952 13.8865 4.74031C13.9153 4.71111 13.9389 4.67817 13.9574 4.6415C13.9762 4.60437 13.9888 4.56525 13.9952 4.52414C14.0017 4.48303 14.0016 4.44193 13.9951 4.40083C13.9886 4.35973 13.9758 4.32064 13.957 4.28356C13.9381 4.24648 13.9139 4.2132 13.8846 4.18374L13.8846 4.18374Z" fill="rgb(69,69,69)" fill-rule="nonzero" transform="matrix(0.711658,-0.702526,0.702526,0.711658,2.09326,10.9272)" />
</svg>
