<svg viewBox="0 0 24 24" xmlns="http://www.w3.org/2000/svg" xmlns:xlink="http://www.w3.org/1999/xlink" width="24" height="24" fill="none" customFrame="#000000">
	<g id="组合 6480">
		<rect id="矩形 1346" width="24" height="24" x="0" y="0" fill="rgb(196,196,196)" fill-opacity="0" />
		<g id="组合 6479">
			<rect id="矩形 1343" width="7" height="7" x="5" y="4" rx="1" fill="rgb(196,196,196)" fill-opacity="0" />
			<rect id="矩形 1343" width="5.80000019" height="5.80000019" x="5.5999999" y="4.5999999" rx="1" stroke="rgb(0,0,0)" stroke-opacity="0.899999976" stroke-width="1.20000005" />
			<rect id="矩形 1345" width="7" height="7" x="5" y="12" rx="1" fill="rgb(196,196,196)" fill-opacity="0" />
			<rect id="矩形 1345" width="5.80000019" height="5.80000019" x="5.5999999" y="12.6000004" rx="1" stroke="rgb(0,0,0)" stroke-opacity="0.899999976" stroke-width="1.20000005" />
			<rect id="矩形 1344" width="7" height="7" x="13" y="4" rx="1" fill="rgb(196,196,196)" fill-opacity="0" />
			<rect id="矩形 1344" width="5.80000019" height="5.80000019" x="13.6000004" y="4.5999999" rx="1" stroke="rgb(0,0,0)" stroke-opacity="0.899999976" stroke-width="1.20000005" />
			<path id="直线 78" d="M0 0L2 0" stroke="rgb(0,0,0)" stroke-linecap="round" stroke-width="1.20000005" transform="matrix(0,1,-1,0,17,13)" />
			<path id="直线 81" d="M0 0L1 0" stroke="rgb(0,0,0)" stroke-linecap="round" stroke-width="1.20000005" transform="matrix(0,1,-1,0,17,17)" />
			<path id="直线 82" d="M0 0L1 0" stroke="rgb(0,0,0)" stroke-linecap="round" stroke-width="1.20000005" transform="matrix(0,1,-1,0,14.5,13)" />
			<path id="直线 83" d="M0 0L1 0" stroke="rgb(0,0,0)" stroke-linecap="round" stroke-width="1.20000005" transform="matrix(0,1,-1,0,19.5,13)" />
			<path id="直线 79" d="M0 0L2 0" stroke="rgb(0,0,0)" stroke-linecap="round" stroke-width="1.20000005" transform="matrix(0,1,-1,0,19.5,16)" />
			<path id="直线 80" d="M0 0L2 0" stroke="rgb(0,0,0)" stroke-linecap="round" stroke-width="1.20000005" transform="matrix(0,1,-1,0,14.5,16)" />
		</g>
	</g>
</svg>
