<svg viewBox="0 0 24 24" xmlns="http://www.w3.org/2000/svg" xmlns:xlink="http://www.w3.org/1999/xlink" width="24" height="24" fill="none" customFrame="#000000">
	<g id="组合 5934">
		<rect id="矩形 1236" width="24" height="24" x="0" y="0" fill="rgb(196,196,196)" fill-opacity="0" />
		<path id="多边形 7" d="M20.6603 17C21.0452 17.6667 20.564 18.5 19.7942 18.5L4.20577 18.5C3.43597 18.5 2.95485 17.6667 3.33975 17L11.134 3.5C11.5189 2.83333 12.4811 2.83333 12.866 3.5L20.6603 17Z" fill="rgb(196,196,196)" fill-opacity="0" fill-rule="evenodd" />
		<path id="多边形 7" d="M19.7942 18.5C20.564 18.5 21.0452 17.6667 20.6603 17L12.866 3.5C12.4811 2.83333 11.5189 2.83333 11.134 3.5L3.33975 17C2.95485 17.6667 3.43597 18.5 4.20577 18.5L19.7942 18.5ZM18.755 16.9L12 5.2L5.245 16.9L18.755 16.9Z" fill="rgb(0,0,0)" fill-opacity="0.899999976" fill-rule="evenodd" />
	</g>
</svg>
