<svg viewBox="0 0 24 24" xmlns="http://www.w3.org/2000/svg" xmlns:xlink="http://www.w3.org/1999/xlink" width="24" height="24" fill="none" customFrame="#000000">
	<g id="组合 6087">
		<path id="路径" d="M7.64395 10.5011C7.64395 10.5011 7.24605 9.21357 7.49871 8.26508C8.67045 5.59413 12.4731 7.98241 12.4731 7.98241C12.4731 7.98241 14.0226 8.2927 15.3598 11.2998C15.9719 12.6761 17.9382 12.8542 18.1591 14.3504C18.6602 17.7388 14.4901 16.7269 14.4901 16.7269C14.4901 16.7269 13.3129 15.4029 10.3451 16.8268C6.02975 17.7277 5.10761 14.9133 6.79078 13.0117C8.01989 12.002 7.64395 10.5011 7.64395 10.5011ZM9.02285 9.73903C8.96426 9.45075 8.93226 9.16531 8.9386 8.92609C8.94037 8.85932 8.94509 8.79952 8.95211 8.74796C9.08343 8.5196 9.25551 8.46898 9.66214 8.50904C10.02 8.5443 10.4504 8.67155 10.8981 8.86445C11.1015 8.95212 11.2933 9.04664 11.4652 9.14029C11.5629 9.19352 11.627 9.23135 11.6503 9.24597L11.8891 9.39598L12.0875 9.4357C12.1456 9.46168 12.224 9.50652 12.3205 9.57587C12.7009 9.84916 13.1178 10.3216 13.5376 11.0584C13.6827 11.313 13.8239 11.5932 13.9604 11.9002C14.3354 12.7432 14.8409 13.209 15.8162 13.8649L15.9583 13.9603C16.5226 14.3396 16.6316 14.4551 16.6478 14.5653C16.7447 15.2202 16.6913 15.2771 16.1484 15.346C15.8486 15.384 15.494 15.3705 15.1473 15.3214C15.0444 15.2523 14.9303 15.1844 14.8048 15.1193C13.5431 14.4652 11.8616 14.4759 9.85583 15.393C7.549 15.8348 7.02412 15.0919 7.87678 14.0684C8.27576 13.7169 8.58531 13.3086 8.80704 12.8592C9.21406 12.0343 9.28794 11.1986 9.17921 10.4397C9.16155 10.3165 9.14147 10.2163 9.12278 10.1417L9.10114 10.0643C9.08606 10.0155 9.05527 9.89854 9.02285 9.73903Z" fill="rgb(24,25,25)" fill-rule="evenodd" />
		<path id="路径" d="M10.4795 12.0503C10.4795 12.0503 10.3634 11.6641 10.4371 11.3795C10.7789 10.5782 11.888 11.2947 11.888 11.2947C11.888 11.2947 12.3399 11.3878 12.7299 12.2899C12.9085 12.7028 13.482 12.7562 13.5464 13.2051C13.6926 14.2217 12.4763 13.9181 12.4763 13.9181C12.4763 13.9181 12.1329 13.5209 11.2673 13.948C10.0087 14.2183 9.73972 13.374 10.2306 12.8035C10.5891 12.5006 10.4795 12.0503 10.4795 12.0503Z" fill="rgb(24,25,25)" fill-rule="evenodd" />
		<g id="组合 5874">
			<rect id="矩形 1227" width="24" height="24" x="0" y="0" fill="rgb(196,196,196)" fill-opacity="0" />
			<g id="组合 5871">
				<rect id="矩形 597" width="18" height="18" x="3" y="3" rx="2.57142854" fill="rgb(196,196,196)" fill-opacity="0" />
				<rect id="矩形 597" width="16.3999996" height="16.3999996" x="3.79999995" y="3.79999995" rx="2.57142854" stroke="rgb(0,0,0)" stroke-opacity="0.899999976" stroke-width="1.60000002" />
			</g>
		</g>
	</g>
</svg>
