<svg viewBox="0 0 24 24" xmlns="http://www.w3.org/2000/svg" xmlns:xlink="http://www.w3.org/1999/xlink" width="24" height="24" fill="none" customFrame="#000000">
	<g id="组合 5888">
		<rect id="矩形 1234" width="24" height="24" x="0" y="0" fill="rgb(196,196,196)" fill-opacity="0" />
		<g id="组合 5887">
			<circle id="椭圆 7" cx="13.0002441" cy="8" r="2" fill="rgb(196,196,196)" fill-opacity="0" />
			<circle id="椭圆 7" cx="13.0002441" cy="8" r="1.27398419" stroke="rgb(0,0,0)" stroke-opacity="0.899999976" stroke-width="1.45203173" />
			<g id="组合 5886">
				<circle id="椭圆 15" cx="17.5" cy="15.5" r="5.5" fill="rgb(196,196,196)" fill-opacity="0" />
				<circle id="椭圆 15" cx="17.5" cy="15.5" r="4.81936026" stroke="rgb(0,0,0)" stroke-width="1.36127973" />
				<g id="组合 5885">
					<path id="直线 51" d="M0 0L3 0" stroke="rgb(0,0,0)" stroke-linecap="round" stroke-width="1.36127973" transform="matrix(0,1,-1,0,17.5762,13.2083)" />
					<circle id="椭圆 16" cx="17.4990234" cy="17.9997559" r="1" fill="rgb(0,0,0)" />
				</g>
			</g>
			<path id="减去顶层" d="M16.0556 3L4.38744 3C3.09858 3 2.05371 4.04487 2.05371 5.33373L2.05434 16.2274C2.05434 17.5162 3.09908 18.5609 4.38787 18.5609L11.3614 18.5609C11.0409 18.1016 10.7797 17.5979 10.5886 17.0609L4.38787 17.0609C4.27276 17.0609 4.16608 17.0406 4.06783 16.9999C3.96961 16.9592 3.87983 16.8981 3.79847 16.8168C3.71711 16.7354 3.65608 16.6456 3.61539 16.5474L3.61536 16.5474C3.57468 16.4491 3.55434 16.3425 3.55434 16.2274L3.55371 5.33365C3.55371 5.21871 3.57401 5.11216 3.61461 5.01402L3.61463 5.01398C3.65533 4.91562 3.71642 4.82569 3.79791 4.7442C3.87933 4.66278 3.96918 4.60172 4.06746 4.56102L4.06747 4.56102C4.16571 4.52034 4.27236 4.5 4.38744 4.5L16.0556 4.5C16.1707 4.5 16.2774 4.52035 16.3756 4.56106L16.3757 4.56111C16.4739 4.6018 16.5636 4.66281 16.6449 4.74412C16.7263 4.82548 16.7873 4.91526 16.828 5.01347L16.828 5.0135C16.8687 5.11175 16.8891 5.21841 16.8891 5.33351L16.8893 8.58575C17.408 8.611 17.9105 8.69847 18.3893 8.84088L18.3891 5.33351C18.3891 4.04473 17.3443 3 16.0556 3Z" fill="rgb(0,0,0)" fill-opacity="0.899999976" fill-rule="evenodd" />
			<path id="减去顶层" d="M11.1911 12.1452C11.1609 12.1157 11.1299 12.0853 11.0981 12.054C10.7674 11.7293 10.5152 11.4873 10.3415 11.3282C10.0422 11.0538 9.76297 10.8213 9.50399 10.6307C8.81074 10.1205 8.11895 9.80785 7.42862 9.69279C7.25353 9.66361 7.07814 9.64702 6.90248 9.64304L6.90244 9.64303L6.90243 9.64303C6.32627 9.62997 5.74703 9.75242 5.16472 10.0104C4.59102 10.2646 4.02923 10.6446 3.47936 11.1506C3.09808 11.5014 2.73931 11.8961 2.40304 12.3345C2.2327 12.5566 2.09836 12.7472 2 12.9064L3.27615 13.6948C3.34796 13.5785 3.45366 13.4294 3.59325 13.2474C3.87685 12.8776 4.17745 12.5467 4.49505 12.2544C4.92359 11.8601 5.34934 11.5692 5.7723 11.3818C6.21597 11.1853 6.64628 11.11 7.06323 11.1559L7.06346 11.156C7.1031 11.1603 7.14262 11.1658 7.18202 11.1724C7.63655 11.2481 8.11416 11.4703 8.61488 11.8388C8.83057 11.9975 9.0683 12.1959 9.32805 12.434C9.48899 12.5815 9.72869 12.8116 10.0471 13.1243C10.2226 13.2966 10.3759 13.4455 10.507 13.5708C10.6713 13.0619 10.9028 12.5832 11.1911 12.1452Z" fill="rgb(0,0,0)" fill-opacity="0.899999976" fill-rule="evenodd" />
		</g>
	</g>
</svg>
