<svg viewBox="0 0 24 24" xmlns="http://www.w3.org/2000/svg" xmlns:xlink="http://www.w3.org/1999/xlink" width="24" height="24" fill="none" customFrame="#000000">
	<g id="组合 5931">
		<rect id="矩形 1231" width="24" height="24" x="0" y="0" fill="rgb(196,196,196)" fill-opacity="0" />
		<g id="组合 5882">
			<path id="直线 50" d="M9 5.00024L14 5.00024" stroke="rgb(0,0,0)" stroke-opacity="0.899999976" stroke-linecap="round" stroke-width="1.5" />
			<path id="矩形 1233" d="M11.5 21.75L6 21.75C5.76297 21.75 5.53584 21.7041 5.31859 21.6122C5.10913 21.5236 4.92379 21.3987 4.76256 21.2374C4.60133 21.0762 4.47642 20.8909 4.38783 20.6814C4.29594 20.4642 4.25 20.237 4.25 20L4.25 8C4.25 7.76297 4.29594 7.53584 4.38783 7.31859C4.47642 7.10913 4.60134 6.92379 4.76256 6.76256C4.92379 6.60134 5.10913 6.47642 5.31859 6.38783C5.53584 6.29594 5.76297 6.25 6 6.25L17 6.25C17.237 6.25 17.4642 6.29594 17.6814 6.38783C17.8909 6.47642 18.0762 6.60133 18.2374 6.76256C18.3987 6.92379 18.5236 7.10913 18.6122 7.31859C18.7041 7.53584 18.75 7.76297 18.75 8L18.75 15.3769L17.25 15.3769L17.25 8C17.25 7.93096 17.2256 7.87204 17.1768 7.82322C17.128 7.77441 17.069 7.75 17 7.75L6 7.75C5.93096 7.75 5.87204 7.77441 5.82322 7.82322C5.77441 7.87204 5.75 7.93096 5.75 8L5.75 20C5.75 20.069 5.77441 20.128 5.82322 20.1768C5.87204 20.2256 5.93096 20.25 6 20.25L11.5 20.25L11.5 21.75ZM11.48 20.27L11.5 20.25C11.92 20.25 12.25 20.58 12.25 21C12.25 21.42 11.92 21.75 11.5 21.75L11.48 21.73L11.48 20.27ZM18.73 15.3569L18.75 15.3769C18.75 15.7969 18.42 16.1269 18 16.1269C17.58 16.1269 17.25 15.7969 17.25 15.3769L17.27 15.3569L18.73 15.3569Z" fill="rgb(0,0,0)" fill-opacity="0.899999976" fill-rule="nonzero" />
			<path id="矢量 502" d="M13 19.5653L15.1221 21.9999L19.9365 16.4751" stroke="rgb(0,0,0)" stroke-opacity="0.899999976" stroke-linecap="round" stroke-width="1.5" />
			<path id="直线 46" d="M8 14.0327L15 14.0327" stroke="rgb(0,0,0)" stroke-opacity="0.899999976" stroke-linecap="round" stroke-width="1.5" />
			<path id="直线 50" d="M8 17.4751L15 17.4751" stroke="rgb(0,0,0)" stroke-opacity="0.899999976" stroke-linecap="round" stroke-width="1.5" />
			<path id="直线 49" d="M8 10.5901L15 10.5901" stroke="rgb(0,0,0)" stroke-opacity="0.899999976" stroke-linecap="round" stroke-width="1.5" />
		</g>
	</g>
</svg>
