<svg viewBox="0 0 24 24" xmlns="http://www.w3.org/2000/svg" xmlns:xlink="http://www.w3.org/1999/xlink" width="24" height="24" fill="none" customFrame="#000000">
	<g id="组合 6284">
		<rect id="矩形 1235" width="24" height="24" x="0" y="0" fill="rgb(196,196,196)" fill-opacity="0" />
		<g id="组合 5893">
			<g id="组合 5889">
				<circle id="椭圆 19" cx="7.5" cy="15.5" r="2.5" fill="rgb(196,196,196)" fill-opacity="0" />
				<circle id="椭圆 19" cx="7.5" cy="15.5" r="1.89999998" stroke="rgb(0,0,0)" stroke-opacity="0.899999976" stroke-width="1.20000005" />
				<path id="直线 52" d="M0 0L7 0" stroke="rgb(0,0,0)" stroke-opacity="0.899999976" stroke-linecap="round" stroke-width="1.20000005" transform="matrix(0,-1,1,0,7,13)" />
				<path id="直线 53" d="M0 0L1 0" stroke="rgb(0,0,0)" stroke-opacity="0.899999976" stroke-linecap="round" stroke-width="1.20000005" transform="matrix(0,-1,1,0,7,19)" />
			</g>
			<g id="组合 5892">
				<circle id="椭圆 19" cx="17.5" cy="15.5" r="2.5" fill="rgb(196,196,196)" fill-opacity="0" />
				<circle id="椭圆 19" cx="17.5" cy="15.5" r="1.89999998" stroke="rgb(0,0,0)" stroke-opacity="0.899999976" stroke-width="1.20000005" />
				<path id="直线 52" d="M0 0L7 0" stroke="rgb(0,0,0)" stroke-opacity="0.899999976" stroke-linecap="round" stroke-width="1.20000005" transform="matrix(0,-1,1,0,17,13)" />
				<path id="直线 53" d="M0 0L1 0" stroke="rgb(0,0,0)" stroke-opacity="0.899999976" stroke-linecap="round" stroke-width="1.20000005" transform="matrix(0,-1,1,0,17,19)" />
			</g>
			<g id="组合 5891">
				<circle id="椭圆 19" cx="2.5" cy="2.5" r="2.5" fill="rgb(196,196,196)" fill-opacity="0" transform="matrix(1,0,0,-1,10,12)" />
				<circle id="椭圆 19" cx="2.5" cy="2.5" r="1.89999998" stroke="rgb(0,0,0)" stroke-opacity="0.899999976" stroke-width="1.20000005" transform="matrix(1,0,0,-1,10,12)" />
				<path id="直线 52" d="M0 0L7 0" stroke="rgb(0,0,0)" stroke-opacity="0.899999976" stroke-linecap="round" stroke-width="1.20000005" transform="matrix(0,1,1,0,12,12)" />
				<path id="直线 53" d="M0 0L1 0" stroke="rgb(0,0,0)" stroke-opacity="0.899999976" stroke-linecap="round" stroke-width="1.20000005" transform="matrix(0,1,1,0,12,6)" />
			</g>
		</g>
	</g>
</svg>
